 <svg  version="1.0" xmlns="http://www.w3.org/2000/svg"  width="113.000000pt" height="113.000000pt" viewBox="0 0 113.000000 113.000000"  preserveAspectRatio="xMidYMid meet">  <g transform="translate(0.000000,113.000000) scale(0.100000,-0.100000)" fill="#ffffff" stroke="none"> <path d="M464 971 c-104 -25 -232 -133 -279 -235 -36 -78 -44 -198 -21 -281 39 -135 141 -246 261 -283 213 -67 426 22 518 216 43 91 50 214 17 312 -59 176 -207 282 -392 279 -40 -1 -87 -4 -104 -8z m182 -22 c7 -6 19 -9 26 -6 7 2 31 -5 53 -16 22 -12 43 -20 46 -19 16 4 16 -39 1 -48 -10 -5 -12 -10 -5 -10 6 0 15 5 18 10 8 13 45 13 45 -1 0 -5 5 -7 10 -4 6 3 10 -1 10 -9 0 -9 5 -16 11 -16 6 0 8 -7 5 -16 -5 -12 -2 -15 9 -10 10 3 13 2 9 -5 -3 -6 3 -19 15 -30 12 -11 21 -26 21 -34 0 -8 4 -15 10 -15 6 0 8 -16 5 -37 -4 -27 -3 -34 4 -24 8 12 11 10 15 -10 11 -50 11 -129 0 -129 -39 0 -165 56 -185 82 -9 12 -29 22 -44 24 -15 2 -30 5 -33 8 -8 8 19 36 34 36 20 0 17 17 -3 24 -12 5 -24 -1 -38 -21 -56 -77 -135 -123 -213 -123 -46 0 -37 21 15 36 58 17 106 52 142 103 31 45 31 46 9 54 -26 9 -40 -8 -32 -39 3 -12 0 -25 -7 -29 -8 -6 -10 -4 -5 6 4 8 -4 1 -19 -14 -22 -25 -28 -27 -43 -15 -15 12 -16 11 -3 -5 16 -21 19 -18 -44 -44 -57 -22 -68 -46 -31 -65 32 -17 34 -20 16 -40 -16 -16 -27 -18 -47 -5 -8 5 -13 3 -13 -3 0 -7 -6 -10 -14 -7 -20 8 -56 -34 -56 -65 0 -47 12 -89 29 -97 9 -5 38 -12 64 -15 72 -10 300 -93 292 -106 -3 -4 -17 -10 -32 -13 -16 -3 -37 -9 -47 -13 -14 -5 -17 -4 -12 4 5 9 0 9 -19 2 -36 -14 -115 -13 -115 1 0 7 -9 9 -24 5 -25 -6 -91 16 -80 27 3 3 -12 11 -35 17 -29 8 -39 15 -34 25 4 11 1 13 -13 8 -11 -4 -15 -3 -11 4 4 6 0 13 -8 17 -8 3 -15 13 -15 23 0 15 -2 16 -10 3 -8 -12 -10 -10 -10 8 0 13 -4 20 -10 17 -12 -7 -37 49 -61 140 -22 82 -24 116 -6 134 10 11 9 12 -1 7 -10 -6 -11 -1 -6 21 4 15 11 31 16 34 5 3 8 10 7 15 -1 5 5 26 14 46 10 21 17 43 17 50 0 10 2 10 9 0 6 -10 12 -7 25 12 9 14 14 26 10 26 -10 0 50 46 71 54 14 5 16 9 7 15 -8 5 2 12 30 21 24 7 47 17 53 22 5 4 20 8 33 8 13 0 21 3 19 8 -8 12 144 14 159 1z m114 -484 l0 -135 -60 0 -60 0 0 128 c0 71 3 132 7 135 3 4 30 7 60 7 l53 0 0 -135z m75 65 c28 0 99 -29 91 -37 -3 -3 -1 -12 5 -20 9 -10 8 -13 0 -13 -7 0 -10 -4 -7 -8 2 -4 -4 -27 -14 -50 -11 -23 -16 -42 -12 -43 4 0 -2 -4 -13 -8 -11 -5 -20 -14 -20 -22 -1 -8 -7 -13 -14 -11 -8 2 -11 -3 -8 -12 4 -11 -1 -18 -18 -22 -14 -3 -25 -10 -25 -15 0 -5 -6 -9 -14 -9 -8 0 -17 -7 -20 -16 -7 -18 -43 -13 -113 14 -32 13 -43 22 -42 37 1 17 2 17 6 3 2 -10 11 -18 19 -18 8 0 14 8 14 18 0 14 2 15 10 2 7 -11 10 -11 10 -2 0 9 5 10 18 3 23 -12 61 -4 87 20 18 16 20 29 18 101 -2 80 6 146 15 120 2 -6 14 -12 27 -12z m-214 -87 c0 -46 0 -90 -1 -98 0 -11 -13 -15 -54 -15 l-55 0 -3 93 c-2 50 0 94 4 97 3 3 30 5 58 5 l52 0 -1 -82z m-131 -49 l0 -64 -60 0 -60 0 0 64 0 65 38 3 c78 6 82 3 82 -68z"/> <path d="M665 810 c30 -7 30 -7 -13 -15 -23 -4 -45 -11 -48 -16 -3 -5 3 -6 12 -2 12 4 15 3 10 -5 -9 -15 -6 -15 37 3 56 23 64 20 72 -31 12 -81 25 -96 21 -24 -3 36 -5 68 -5 72 -1 10 -61 28 -90 27 -25 -1 -25 -2 4 -9z"/> </g> </svg> 